<svg xmlns="http://www.w3.org/2000/svg" width="1120" height="960" viewBox="0 0 1120 960" role="img" aria-label="ChatMod Mobile dashboard preview">
  <defs>
    <filter id="shadow" x="-20%" y="-20%" width="140%" height="140%">
      <feDropShadow dx="0" dy="28" stdDeviation="34" flood-color="#09204d" flood-opacity=".22"/>
    </filter>
    <linearGradient id="screen" x1="0" x2="1" y1="0" y2="1">
      <stop offset="0" stop-color="#ffffff"/>
      <stop offset="1" stop-color="#edf4ff"/>
    </linearGradient>
  </defs>
  <rect width="1120" height="960" fill="none"/>
  <g transform="translate(70 46)" filter="url(#shadow)">
    <rect x="170" y="0" width="520" height="868" rx="58" fill="#132033"/>
    <rect x="194" y="30" width="472" height="808" rx="42" fill="url(#screen)"/>
    <rect x="336" y="46" width="188" height="20" rx="10" fill="#132033"/>
    <g transform="translate(226 88)">
      <rect width="408" height="86" rx="24" fill="#1f63cc"/>
      <circle cx="38" cy="43" r="14" fill="#00a878"/>
      <text x="66" y="38" font-family="Segoe UI, Arial, sans-serif" font-size="22" font-weight="700" fill="#ffffff">Live bot running</text>
      <text x="66" y="64" font-family="Segoe UI, Arial, sans-serif" font-size="14" fill="#dceaff">Saturday build stream</text>
      <rect x="306" y="26" width="74" height="34" rx="17" fill="#ffffff"/>
      <text x="326" y="49" font-family="Segoe UI, Arial, sans-serif" font-size="14" font-weight="700" fill="#1f63cc">Stop</text>
    </g>
    <g transform="translate(226 196)">
      <text x="0" y="23" font-family="Segoe UI, Arial, sans-serif" font-size="20" font-weight="800" fill="#172033">Moderation queue</text>
      <rect x="0" y="42" width="408" height="92" rx="18" fill="#fff7e8" stroke="#e9c17a"/>
      <rect x="18" y="62" width="48" height="48" rx="24" fill="#c78314"/>
      <text x="82" y="78" font-family="Segoe UI, Arial, sans-serif" font-size="16" font-weight="800" fill="#172033">Blocked phrase</text>
      <text x="82" y="102" font-family="Segoe UI, Arial, sans-serif" font-size="14" fill="#617086">cheap views offer</text>
      <rect x="300" y="72" width="82" height="34" rx="17" fill="#c22e1e"/>
      <text x="321" y="95" font-family="Segoe UI, Arial, sans-serif" font-size="13" font-weight="800" fill="#ffffff">Delete</text>
      <rect x="0" y="150" width="408" height="76" rx="18" fill="#eef7f2" stroke="#9ad6bd"/>
      <rect x="18" y="169" width="38" height="38" rx="19" fill="#00a878"/>
      <text x="74" y="181" font-family="Segoe UI, Arial, sans-serif" font-size="16" font-weight="800" fill="#172033">Trusted member bypass</text>
      <text x="74" y="205" font-family="Segoe UI, Arial, sans-serif" font-size="14" fill="#617086">member message allowed</text>
    </g>
    <g transform="translate(226 456)">
      <rect width="408" height="184" rx="22" fill="#ffffff" stroke="#d7e2f1"/>
      <text x="22" y="38" font-family="Segoe UI, Arial, sans-serif" font-size="20" font-weight="800" fill="#172033">Live controls</text>
      <rect x="22" y="60" width="172" height="42" rx="21" fill="#fff1df"/>
      <text x="43" y="87" font-family="Segoe UI, Arial, sans-serif" font-size="14" font-weight="800" fill="#9a5a00">Emergency off</text>
      <rect x="212" y="60" width="174" height="42" rx="21" fill="#e8f2ff"/>
      <text x="235" y="87" font-family="Segoe UI, Arial, sans-serif" font-size="14" font-weight="800" fill="#1f63cc">Links by rules</text>
      <rect x="22" y="124" width="364" height="38" rx="19" fill="#172033"/>
      <text x="76" y="149" font-family="Segoe UI, Arial, sans-serif" font-size="14" font-weight="800" fill="#ffffff">Recommend subscribers-only</text>
    </g>
    <g transform="translate(226 672)">
      <rect width="408" height="76" rx="20" fill="#edf4ff" stroke="#d7e2f1"/>
      <text x="22" y="31" font-family="Segoe UI, Arial, sans-serif" font-size="17" font-weight="800" fill="#172033">Room logs synced locally</text>
      <text x="22" y="55" font-family="Segoe UI, Arial, sans-serif" font-size="14" fill="#617086">Export CSV after stream, tune false positives</text>
    </g>
  </g>
  <g transform="translate(690 210)">
    <rect x="0" y="0" width="318" height="134" rx="18" fill="#ffffff" stroke="#d7e2f1"/>
    <text x="24" y="38" font-family="Segoe UI, Arial, sans-serif" font-size="18" font-weight="800" fill="#172033">Backend sync</text>
    <text x="24" y="68" font-family="Segoe UI, Arial, sans-serif" font-size="14" fill="#617086">Postgres audit trails</text>
    <text x="24" y="96" font-family="Segoe UI, Arial, sans-serif" font-size="14" fill="#617086">OAuth token custody</text>
    <path d="M-88 128 C-38 118 12 104 72 92" fill="none" stroke="#1f63cc" stroke-width="6" stroke-linecap="round"/>
  </g>
  <g transform="translate(710 392)">
    <rect x="0" y="0" width="296" height="118" rx="18" fill="#eef7f2" stroke="#9ad6bd"/>
    <text x="24" y="38" font-family="Segoe UI, Arial, sans-serif" font-size="18" font-weight="800" fill="#172033">Phone-hosted</text>
    <text x="24" y="68" font-family="Segoe UI, Arial, sans-serif" font-size="14" fill="#4f7666">Foreground service</text>
    <text x="24" y="94" font-family="Segoe UI, Arial, sans-serif" font-size="14" fill="#4f7666">Wake-lock heartbeat</text>
  </g>
  <g transform="translate(668 560)">
    <rect x="0" y="0" width="338" height="148" rx="18" fill="#fff7e8" stroke="#e9c17a"/>
    <text x="24" y="40" font-family="Segoe UI, Arial, sans-serif" font-size="18" font-weight="800" fill="#172033">Creator controls</text>
    <text x="24" y="72" font-family="Segoe UI, Arial, sans-serif" font-size="14" fill="#765421">Commands, timers, presets</text>
    <text x="24" y="100" font-family="Segoe UI, Arial, sans-serif" font-size="14" fill="#765421">False-positive tuning</text>
    <text x="24" y="126" font-family="Segoe UI, Arial, sans-serif" font-size="14" fill="#765421">Export/delete/account controls</text>
  </g>
</svg>
