<svg xmlns="http://www.w3.org/2000/svg" width="108" height="108" viewBox="0 0 108 108" role="img" aria-label="ChatMod mark">
  <path fill="#1F63CC" d="M14 20c0-5.5 4.5-10 10-10h60c5.5 0 10 4.5 10 10v58c0 5.5-4.5 10-10 10H62L48 99V88H24c-5.5 0-10-4.5-10-10V20Z"/>
  <path fill="#FFFFFF" d="M31 34c0-4.4 3.6-8 8-8h30c4.4 0 8 3.6 8 8v22c0 4.4-3.6 8-8 8h-8l-7 8-7-8h-8c-4.4 0-8-3.6-8-8V34Z"/>
  <path fill="#00A878" d="M43 43c0-2.8 2.2-5 5-5s5 2.2 5 5-2.2 5-5 5-5-2.2-5-5Z"/>
  <path fill="#00A878" d="M59 43c0-2.8 2.2-5 5-5s5 2.2 5 5-2.2 5-5 5-5-2.2-5-5Z"/>
</svg>
